<svg width="150" height="150" viewBox="0 0 150 150" fill="none" xmlns="http://www.w3.org/2000/svg">
<g clip-path="url(#clip0_2_6)">
<circle cx="75" cy="75" r="75" fill="url(#paint0_linear_2_6)"/>
<mask id="path-2-outside-1_2_6" maskUnits="userSpaceOnUse" x="34" y="24" width="85" height="104" fill="black">
<rect fill="white" x="34" y="24" width="85" height="104"/>
<path d="M45.375 121C42.4583 121 41 119.438 41 116.312V36.0625C41 32.9375 42.4583 31.375 45.375 31.375H54.875C57.7917 31.375 59.25 32.9375 59.25 36.0625V66.625H92.875V36.0625C92.875 32.9375 94.3333 31.375 97.25 31.375H106.75C109.667 31.375 111.125 32.9375 111.125 36.0625V116.312C111.125 119.438 109.667 121 106.75 121H97.25C94.3333 121 92.875 119.438 92.875 116.312V82.125H59.25V116.312C59.25 119.438 57.7917 121 54.875 121H45.375Z"/>
</mask>
<path d="M45.375 121C42.4583 121 41 119.438 41 116.312V36.0625C41 32.9375 42.4583 31.375 45.375 31.375H54.875C57.7917 31.375 59.25 32.9375 59.25 36.0625V66.625H92.875V36.0625C92.875 32.9375 94.3333 31.375 97.25 31.375H106.75C109.667 31.375 111.125 32.9375 111.125 36.0625V116.312C111.125 119.438 109.667 121 106.75 121H97.25C94.3333 121 92.875 119.438 92.875 116.312V82.125H59.25V116.312C59.25 119.438 57.7917 121 54.875 121H45.375Z" fill="#5C6AFF"/>
<path d="M59.25 66.625H52.25V73.625H59.25V66.625ZM92.875 66.625V73.625H99.875V66.625H92.875ZM92.875 82.125H99.875V75.125H92.875V82.125ZM59.25 82.125V75.125H52.25V82.125H59.25ZM45.375 114C45.1241 114 46.1879 113.956 47.2111 115.052C48.1494 116.057 48 116.911 48 116.312H34C34 118.839 34.5797 122.037 36.9764 124.604C39.4579 127.263 42.7092 128 45.375 128V114ZM48 116.312V36.0625H34V116.312H48ZM48 36.0625C48 35.4635 48.1494 36.3178 47.2111 37.3231C46.1879 38.4194 45.1241 38.375 45.375 38.375V24.375C42.7092 24.375 39.4579 25.1119 36.9764 27.7706C34.5797 30.3385 34 33.5365 34 36.0625H48ZM45.375 38.375H54.875V24.375H45.375V38.375ZM54.875 38.375C55.1259 38.375 54.0621 38.4194 53.0389 37.3231C52.1006 36.3178 52.25 35.4635 52.25 36.0625H66.25C66.25 33.5365 65.6703 30.3385 63.2736 27.7706C60.7921 25.1119 57.5408 24.375 54.875 24.375V38.375ZM52.25 36.0625V66.625H66.25V36.0625H52.25ZM59.25 73.625H92.875V59.625H59.25V73.625ZM99.875 66.625V36.0625H85.875V66.625H99.875ZM99.875 36.0625C99.875 35.4635 100.024 36.3178 99.0861 37.3231C98.0629 38.4194 96.9991 38.375 97.25 38.375V24.375C94.5842 24.375 91.3329 25.1119 88.8514 27.7706C86.4547 30.3385 85.875 33.5365 85.875 36.0625H99.875ZM97.25 38.375H106.75V24.375H97.25V38.375ZM106.75 38.375C107.001 38.375 105.937 38.4194 104.914 37.3231C103.976 36.3178 104.125 35.4635 104.125 36.0625H118.125C118.125 33.5365 117.545 30.3385 115.149 27.7706C112.667 25.1119 109.416 24.375 106.75 24.375V38.375ZM104.125 36.0625V116.312H118.125V36.0625H104.125ZM104.125 116.312C104.125 116.911 103.976 116.057 104.914 115.052C105.937 113.956 107.001 114 106.75 114V128C109.416 128 112.667 127.263 115.149 124.604C117.545 122.037 118.125 118.839 118.125 116.312H104.125ZM106.75 114H97.25V128H106.75V114ZM97.25 114C96.9991 114 98.0629 113.956 99.0861 115.052C100.024 116.057 99.875 116.911 99.875 116.312H85.875C85.875 118.839 86.4547 122.037 88.8514 124.604C91.3329 127.263 94.5842 128 97.25 128V114ZM99.875 116.312V82.125H85.875V116.312H99.875ZM92.875 75.125H59.25V89.125H92.875V75.125ZM52.25 82.125V116.312H66.25V82.125H52.25ZM52.25 116.312C52.25 116.911 52.1006 116.057 53.0389 115.052C54.0621 113.956 55.1259 114 54.875 114V128C57.5408 128 60.7921 127.263 63.2736 124.604C65.6703 122.037 66.25 118.839 66.25 116.312H52.25ZM54.875 114H45.375V128H54.875V114Z" fill="white" mask="url(#path-2-outside-1_2_6)"/>
</g>
<defs>
<linearGradient id="paint0_linear_2_6" x1="-1.20518e-09" y1="74.8545" x2="150" y2="75.1455" gradientUnits="userSpaceOnUse">
<stop stop-color="#5C6AFF"/>
<stop offset="1" stop-color="#00FFFF"/>
</linearGradient>
<clipPath id="clip0_2_6">
<rect width="150" height="150" fill="white"/>
</clipPath>
</defs>
</svg>
