
<svg width="48" height="48" viewBox="0 0 48 48" fill="none" xmlns="http://www.w3.org/2000/svg">
<g clip-path="url(#clip0_1_11)">
<g clip-path="url(#clip1_1_11)">
<path d="M36.75 0H11.25C5.0368 0 0 5.0368 0 11.25V36.75C0 42.9632 5.0368 48 11.25 48H36.75C42.9632 48 48 42.9632 48 36.75V11.25C48 5.0368 42.9632 0 36.75 0Z" fill="#242938"/>
<mask id="mask0_1_11" style="mask-type:alpha" maskUnits="userSpaceOnUse" x="7" y="6" width="34" height="36">
<path d="M8.66545 10.0873C13.1439 8.84136 19.7774 6.97322 22.575 6.18453C23.4406 5.94049 24.356 5.93859 25.223 6.17835C27.9181 6.92364 34.187 8.66523 39.0344 10.0735C40.015 10.3584 40.6837 11.231 40.6594 12.1997C40.0994 34.5839 28.1377 39.9538 24.7705 41.0241C24.1948 41.2071 23.5964 41.2076 23.0201 41.0261C19.6366 39.9609 7.57572 34.6025 7.00067 12.2306C6.97541 11.247 7.66615 10.3653 8.66545 10.0873Z" fill="#D9D9D9"/>
</mask>
<g mask="url(#mask0_1_11)">
<path d="M23.8955 23.0367L23.6314 5.18798L41.737 9.80618L23.8955 23.0367Z" fill="url(#paint0_linear_1_11)"/>
<path d="M23.8957 23.0367V5.81208L6.58289 10.1806L4.20403 20.79L11.7371 31.8986L23.8957 23.0367Z" fill="url(#paint1_linear_1_11)"/>
<path d="M41.2083 10.1807L11.4727 31.8986V41.7593H40.8118L41.2083 10.1807Z" fill="url(#paint2_linear_1_11)"/>
</g>
</g>
</g>
<defs>
<linearGradient id="paint0_linear_1_11" x1="23.8955" y1="5.81206" x2="36.1365" y2="14.3177" gradientUnits="userSpaceOnUse">
<stop stop-color="#19AAE8"/>
<stop offset="1" stop-color="#1EA5F1"/>
</linearGradient>
<linearGradient id="paint1_linear_1_11" x1="7.11152" y1="10.5551" x2="23.1699" y2="23.6754" gradientUnits="userSpaceOnUse">
<stop stop-color="#2BE2B8"/>
<stop offset="1" stop-color="#19B9E3"/>
</linearGradient>
<linearGradient id="paint2_linear_1_11" x1="40.5474" y1="10.3055" x2="20.2273" y2="40.1161" gradientUnits="userSpaceOnUse">
<stop stop-color="#925CDF"/>
<stop offset="1" stop-color="#CC42E5"/>
</linearGradient>
<clipPath id="clip0_1_11">
<rect width="48" height="48" fill="white"/>
</clipPath>
<clipPath id="clip1_1_11">
<rect width="48" height="48" fill="white"/>
</clipPath>
</defs>
</svg>
